<svg width="8" height="8" viewBox="0 0 8 8" fill="none" xmlns="http://www.w3.org/2000/svg">
  <path d="M3.5707 1.59998H4.7707C4.7707 1.44085 4.70749 1.28823 4.59497 1.17571C4.48245 1.06319 4.32983 0.999976 4.1707 0.999976C4.01157 0.999976 3.85896 1.06319 3.74644 1.17571C3.63392 1.28823 3.5707 1.44085 3.5707 1.59998ZM3.1707 1.59998C3.1707 1.33476 3.27606 1.08041 3.4636 0.892869C3.65113 0.705332 3.90549 0.599976 4.1707 0.599976C4.43592 0.599976 4.69027 0.705332 4.87781 0.892869C5.06535 1.08041 5.1707 1.33476 5.1707 1.59998H7.1707C7.22375 1.59998 7.27462 1.62105 7.31212 1.65855C7.34963 1.69606 7.3707 1.74693 7.3707 1.79998C7.3707 1.85302 7.34963 1.90389 7.31212 1.9414C7.27462 1.9789 7.22375 1.99998 7.1707 1.99998H6.7491L6.2715 6.13758C6.23774 6.43005 6.09764 6.69991 5.87785 6.8958C5.65806 7.0917 5.37392 7.19995 5.0795 7.19998H3.2619C2.96748 7.19995 2.68335 7.0917 2.46356 6.8958C2.24377 6.69991 2.10366 6.43005 2.0699 6.13758L1.5923 1.99998H1.1707C1.11766 1.99998 1.06679 1.9789 1.02928 1.9414C0.991775 1.90389 0.970703 1.85302 0.970703 1.79998C0.970703 1.74693 0.991775 1.69606 1.02928 1.65855C1.06679 1.62105 1.11766 1.59998 1.1707 1.59998H3.1707ZM2.4671 6.09198C2.48967 6.28693 2.58312 6.46679 2.72967 6.59734C2.87622 6.72788 3.06564 6.8 3.2619 6.79998H5.0795C5.27576 6.8 5.46519 6.72788 5.61174 6.59734C5.75828 6.46679 5.85173 6.28693 5.8743 6.09198L6.3463 1.99998H1.9951L2.4671 6.09198ZM3.5707 2.99998C3.62375 2.99998 3.67462 3.02105 3.71212 3.05855C3.74963 3.09606 3.7707 3.14693 3.7707 3.19998V5.59998C3.7707 5.65302 3.74963 5.70389 3.71212 5.7414C3.67462 5.7789 3.62375 5.79998 3.5707 5.79998C3.51766 5.79998 3.46679 5.7789 3.42928 5.7414C3.39177 5.70389 3.3707 5.65302 3.3707 5.59998V3.19998C3.3707 3.14693 3.39177 3.09606 3.42928 3.05855C3.46679 3.02105 3.51766 2.99998 3.5707 2.99998ZM4.9707 3.19998C4.9707 3.14693 4.94963 3.09606 4.91212 3.05855C4.87462 3.02105 4.82375 2.99998 4.7707 2.99998C4.71766 2.99998 4.66679 3.02105 4.62928 3.05855C4.59177 3.09606 4.5707 3.14693 4.5707 3.19998V5.59998C4.5707 5.65302 4.59177 5.70389 4.62928 5.7414C4.66679 5.7789 4.71766 5.79998 4.7707 5.79998C4.82375 5.79998 4.87462 5.7789 4.91212 5.7414C4.94963 5.70389 4.9707 5.65302 4.9707 5.59998V3.19998Z" fill="white"/>
</svg>
