<?xml version="1.0" standalone="no"?>
<!DOCTYPE svg PUBLIC "-//W3C//DTD SVG 20010904//EN"
 "http://www.w3.org/TR/2001/REC-SVG-20010904/DTD/svg10.dtd">
<svg version="1.0" xmlns="http://www.w3.org/2000/svg"
 width="344.000000pt" height="344.000000pt" viewBox="0 0 344.000000 344.000000"
 preserveAspectRatio="xMidYMid meet">

<g transform="translate(0.000000,344.000000) scale(0.100000,-0.100000)"
fill="#000000" stroke="none">
<path d="M1050 3140 c-19 -19 -20 -33 -20 -205 l0 -185 -323 0 c-317 0 -324 0
-343 -21 -18 -20 -19 -57 -22 -1198 -1 -647 0 -1186 3 -1198 13 -56 -54 -53
1063 -53 565 0 1032 4 1038 8 28 19 34 56 34 226 l0 176 323 0 c301 0 325 1
340 18 16 17 17 116 17 1219 0 1150 -1 1201 -18 1216 -17 16 -104 17 -1045 17
-1014 0 -1027 0 -1047 -20z m1980 -1210 l0 -1100 -275 0 -275 0 0 78 0 79 83
27 c190 63 294 181 321 363 13 94 0 126 -54 131 -55 5 -70 -13 -81 -98 -5 -42
-19 -95 -32 -120 -29 -56 -103 -113 -179 -139 l-58 -20 0 783 c0 777 0 784
-21 810 l-20 26 -635 0 -634 0 0 140 0 140 930 0 930 0 0 -1100z m-690 -69 l0
-749 -22 -6 c-13 -3 -115 -6 -228 -6 l-205 0 88 88 c71 71 87 93 87 117 0 17
-4 35 -8 41 -12 19 -52 35 -70 30 -10 -4 -89 -77 -175 -164 -115 -116 -157
-165 -157 -182 0 -18 42 -66 158 -182 131 -131 163 -158 187 -158 38 0 65 26
65 64 0 25 -16 46 -87 118 l-88 88 190 0 c105 0 207 3 228 6 l37 7 0 -282 0
-281 -930 0 -930 0 0 1100 0 1100 930 0 930 0 0 -749z"/>
<path d="M780 2320 c-11 -11 -20 -33 -20 -50 0 -17 9 -39 20 -50 20 -20 33
-20 630 -20 597 0 610 0 630 20 12 12 20 33 20 54 0 69 25 66 -652 66 -595 0
-608 0 -628 -20z"/>
<path d="M786 1909 c-19 -15 -26 -30 -26 -54 0 -67 -24 -65 650 -65 672 0 650
-2 650 63 -1 79 19 77 -653 77 -586 0 -595 0 -621 -21z"/>
<path d="M777 1492 c-22 -25 -21 -75 1 -95 17 -15 59 -17 394 -17 350 0 376 1
391 18 22 25 21 75 -1 95 -17 15 -59 17 -394 17 -350 0 -376 -1 -391 -18z"/>
</g>
</svg>
